<svg id="Camada_1" data-name="Camada 1" xmlns="http://www.w3.org/2000/svg" xmlns:xlink="http://www.w3.org/1999/xlink" viewBox="0 0 340.97 657.16"><defs><style>.cls-1{fill:url(#linear-gradient);}.cls-2{fill:url(#linear-gradient-2);}.cls-3{fill:url(#linear-gradient-3);}.cls-4{fill:url(#linear-gradient-4);}.cls-5{fill:url(#linear-gradient-5);}.cls-6{fill:url(#linear-gradient-6);}.cls-7{fill:url(#linear-gradient-7);}.cls-8{fill:url(#linear-gradient-8);}.cls-9{fill:url(#linear-gradient-9);}.cls-10{fill:url(#linear-gradient-10);}</style><linearGradient id="linear-gradient" x1="621.07" y1="746.74" x2="621.07" y2="231.37" gradientUnits="userSpaceOnUse"><stop offset="0" stop-color="#00abc5"/><stop offset="0.44" stop-color="#00929e"/><stop offset="1" stop-color="#007b8d"/></linearGradient><linearGradient id="linear-gradient-2" x1="450.6" y1="427.25" x2="791.57" y2="427.25" gradientUnits="userSpaceOnUse"><stop offset="0" stop-color="#007b8d"/><stop offset="0.56" stop-color="#00929e"/><stop offset="1" stop-color="#00abc5"/></linearGradient><linearGradient id="linear-gradient-3" x1="617.97" y1="436.7" x2="709.56" y2="383.82" gradientUnits="userSpaceOnUse"><stop offset="0" stop-color="#007b8d"/><stop offset="0.21" stop-color="#008393"/><stop offset="0.42" stop-color="#00929e"/><stop offset="1" stop-color="#00aab5"/></linearGradient><linearGradient id="linear-gradient-4" x1="479.03" y1="461.91" x2="626.38" y2="376.84" gradientUnits="userSpaceOnUse"><stop offset="0" stop-color="#007b8d"/><stop offset="0.39" stop-color="#00929e"/><stop offset="1" stop-color="#6ac9c8"/></linearGradient><linearGradient id="linear-gradient-5" x1="730.36" y1="756.08" x2="730.36" y2="573.05" gradientUnits="userSpaceOnUse"><stop offset="0" stop-color="#b1ded3"/><stop offset="0.44" stop-color="#00b3b5"/><stop offset="1" stop-color="#007b8d"/></linearGradient><linearGradient id="linear-gradient-6" x1="757.63" y1="624.96" x2="757.63" y2="552.24" xlink:href="#linear-gradient"/><linearGradient id="linear-gradient-7" x1="464.49" y1="543.66" x2="615.39" y2="543.66" gradientUnits="userSpaceOnUse"><stop offset="0" stop-color="#ffcb05"/><stop offset="0.61" stop-color="#f37021"/><stop offset="1" stop-color="#f04e23"/></linearGradient><linearGradient id="linear-gradient-8" x1="464.67" y1="723.94" x2="695.43" y2="723.94" gradientUnits="userSpaceOnUse"><stop offset="0" stop-color="#f04e23"/><stop offset="0.39" stop-color="#f37021"/><stop offset="1" stop-color="#fbb040"/></linearGradient><linearGradient id="linear-gradient-9" x1="464.67" y1="717.34" x2="637.08" y2="717.34" gradientUnits="userSpaceOnUse"><stop offset="0" stop-color="#f04e23"/><stop offset="0.39" stop-color="#f37021"/><stop offset="1" stop-color="#ffd400"/></linearGradient><linearGradient id="linear-gradient-10" x1="530.45" y1="765.2" x2="530.45" y2="571.15" xlink:href="#linear-gradient-8"/></defs><path class="cls-1" d="M721.49,746.74c3.78-39.25-12.43-82.24-45.43-119.53q-1.14-1.31-2.31-2.58C660.39,610,644.26,595.76,623,579.8c-11.75-8.82-24-17.39-35.85-25.68-8.29-5.81-16.87-11.81-25.17-17.82-35.32-25.59-74.12-57.71-94.15-101.95a158.23,158.23,0,0,1,66.26-203,63.21,63.21,0,0,0-.34,16.22l-.87-.39,1.85,6.76a80.61,80.61,0,0,0,3.86,13.1c6.69,17.25,19.94,35.36,39.39,53.83,21,19.94,50.29,42.26,76.13,61.94,7.23,5.51,14,10.71,20.32,15.58,33.12,25.69,58,45.65,76.75,68.62,20.46,25.06,31.77,52.26,35.6,85.58,0,.21.13,1,.15,1.2a236.82,236.82,0,0,1-3,70.53C775,670.51,753,713.6,721.49,746.74Z" transform="translate(-450.6 -225.11)"/><path class="cls-2" d="M723.7,573.05c-114.79-110.88-168.19-262.59-182-307.18a76.93,76.93,0,0,1-3.73-12.66c0-.09,0-.15,0-.15h0a60,60,0,0,1,.88-27.95S418.06,355.74,621.09,582.46l-.07,0c18,13.48,35.15,27.84,50.3,44.41.77.84,1.52,1.7,2.28,2.55C681.9,603.43,700.42,585.43,723.7,573.05Z" transform="translate(-450.6 -225.11)"/><path class="cls-3" d="M676.45,395.81c-28.59-22.18-69.44-51.9-96.2-77.31-15.75-14.95-31-33-38.59-52.63,13.85,44.59,67.25,196.3,182,307.18,19.8-10.53,43-17,66.35-20.81C781.64,479.14,739.47,444.7,676.45,395.81Z" transform="translate(-450.6 -225.11)"/><path class="cls-4" d="M538.78,225.11A161.51,161.51,0,0,0,464.84,435.7c19.53,43.15,56.85,75.47,95.21,103.26,20.17,14.61,41.05,28.51,61,43.47l.07,0C418.06,355.74,538.78,225.11,538.78,225.11Z" transform="translate(-450.6 -225.11)"/><path class="cls-5" d="M716.85,756.08c36.28-35,60.76-81.67,70.27-131.12a485.6,485.6,0,0,1-63.42-51.91c-23.28,12.38-41.8,30.38-50.1,56.34C704.32,664.11,725.36,710.65,716.85,756.08Z" transform="translate(-450.6 -225.11)"/><path class="cls-6" d="M787.12,625a240.61,240.61,0,0,0,3.08-71.51c-.05-.41-.11-.8-.15-1.21-23.31,3.82-46.55,10.28-66.35,20.81A485.6,485.6,0,0,0,787.12,625Z" transform="translate(-450.6 -225.11)"/><path class="cls-7" d="M615.39,601.13C569,566.93,524.92,546,476.16,486.18a250.71,250.71,0,0,0-11.49,85C498.4,562.57,555.62,558.53,615.39,601.13Z" transform="translate(-450.6 -225.11)"/><path class="cls-8" d="M634.92,863.53a52.49,52.49,0,0,1-5.4,18.74c25.12-30.66,47.84-64.27,59-102.3s9.63-81.22-11.4-114.83a193.37,193.37,0,0,0-18.29-24.36q-5.42-6.13-10.87-11.66l-1.38-1.39-.13-.12a273.66,273.66,0,0,0-28.37-24.47l-2.72-2c-59.77-42.6-117-38.56-150.72-30h0C639.35,714.26,642.51,822,634.92,863.53Z" transform="translate(-450.6 -225.11)"/><path class="cls-9" d="M464.67,571.15h0s76.91,66.73,131.55,194h0c14.48,14,25.7,31.11,31.28,50,4.65,15.77,9,32.54,7.41,48.32C642.51,822,639.35,714.26,464.67,571.15Z" transform="translate(-450.6 -225.11)"/><path class="cls-10" d="M464.67,571.15c1.94,49.87,19.3,98.44,54.62,133.13,16.54,16.25,52.43,39.91,70.17,54.82q3.49,2.94,6.77,6.1h0C541.58,637.88,464.67,571.15,464.67,571.15Z" transform="translate(-450.6 -225.11)"/></svg>